<svg width="1434" height="758" viewBox="0 0 1434 758" fill="none" xmlns="http://www.w3.org/2000/svg">
<g opacity="0.05" clip-path="url(#clip0_1_47)">
<path d="M1366.97 723.984C1349.88 740.251 1329.28 744 1328.41 744.152C1326.98 744.401 1325.59 743.548 1325.17 742.162L1315.56 710.791C1315.1 709.273 1315.95 707.665 1317.47 707.201C1317.9 707.07 1318.28 706.846 1318.61 706.533C1319.75 705.441 1319.8 703.618 1318.71 702.47C1317.95 701.677 1316.83 701.383 1315.78 701.703C1314.27 702.165 1312.67 701.318 1312.2 699.806L1298.56 655.868C1298.24 654.825 1298.53 653.688 1299.32 652.935L1299.32 652.935C1300.11 652.182 1301.26 651.942 1302.29 652.316L1351.35 670.203C1352.14 670.489 1352.76 671.102 1353.06 671.884C1353.35 672.665 1353.3 673.536 1352.9 674.271C1351.71 676.467 1352.07 679.159 1353.79 680.97C1355.98 683.266 1359.62 683.355 1361.92 681.17C1362.78 680.347 1363.36 679.297 1363.59 678.133C1363.76 677.311 1364.27 676.602 1365 676.19C1365.73 675.778 1366.6 675.704 1367.39 675.988L1387.17 683.128C1388.54 683.62 1389.32 685.05 1389 686.464C1388.81 687.324 1384.05 707.717 1366.97 723.984ZM1329.88 737.926C1335.66 736.444 1350.53 731.7 1363 719.821C1375.48 707.942 1380.95 693.325 1382.71 687.629L1368.13 682.367C1367.55 683.461 1366.8 684.461 1365.88 685.333C1361.29 689.704 1354 689.525 1349.63 684.934C1346.96 682.129 1345.93 678.266 1346.7 674.625L1305.77 659.703L1316.98 695.831C1319.18 695.917 1321.29 696.848 1322.87 698.507C1326.15 701.95 1326.01 707.418 1322.57 710.697C1322.31 710.942 1322.04 711.171 1321.75 711.382L1329.88 737.926Z" fill="white"/>
<path d="M1335.26 690.679C1331.82 693.957 1326.35 693.823 1323.07 690.38C1319.79 686.936 1319.93 681.468 1323.37 678.19C1326.81 674.912 1332.28 675.046 1335.56 678.489C1338.84 681.932 1338.7 687.401 1335.26 690.679ZM1327.33 682.353C1326.18 683.446 1326.14 685.268 1327.23 686.416C1328.33 687.564 1330.15 687.609 1331.3 686.516C1332.44 685.423 1332.49 683.6 1331.4 682.453C1330.3 681.305 1328.48 681.26 1327.33 682.353Z" fill="white"/>
<path d="M1352.8 721.603C1348.2 725.974 1340.91 725.795 1336.54 721.204C1332.17 716.613 1332.35 709.321 1336.94 704.95C1341.53 700.579 1348.82 700.758 1353.19 705.349C1357.57 709.94 1357.39 717.232 1352.8 721.603ZM1340.9 709.113C1338.61 711.299 1338.52 714.945 1340.71 717.24C1342.89 719.536 1346.54 719.625 1348.83 717.44C1351.13 715.254 1351.22 711.608 1349.03 709.313C1346.85 707.017 1343.2 706.928 1340.9 709.113Z" fill="white"/>
<path d="M1371.73 695.64C1372.88 694.546 1372.92 692.726 1371.83 691.577C1370.73 690.427 1368.91 690.383 1367.77 691.477C1366.62 692.572 1366.57 694.391 1367.67 695.54C1368.76 696.69 1370.58 696.735 1371.73 695.64Z" fill="white"/>
<path d="M1347.35 695.041C1348.5 693.947 1348.54 692.128 1347.45 690.978C1346.35 689.829 1344.54 689.784 1343.39 690.878C1342.24 691.973 1342.19 693.792 1343.29 694.942C1344.38 696.091 1346.2 696.136 1347.35 695.041Z" fill="white"/>
<path d="M1319.41 674.027C1320.55 672.932 1320.6 671.113 1319.5 669.963C1318.41 668.814 1316.59 668.769 1315.44 669.864C1314.29 670.958 1314.25 672.777 1315.34 673.927C1316.44 675.076 1318.26 675.121 1319.41 674.027Z" fill="white"/>
</g>
<path d="M1411.58 518.88C1410.25 518.957 1409.59 518.996 1408.56 517.902C1407.52 516.808 1407.56 516.105 1407.63 514.705C1407.73 512.932 1407.85 510.503 1405.41 507.923C1402.98 505.342 1400.68 505.476 1399.01 505.574C1397.68 505.651 1397.02 505.69 1395.99 504.596C1394.95 503.502 1394.99 502.799 1395.06 501.399C1395.15 499.626 1395.28 497.197 1392.84 494.617C1390.4 492.036 1388.11 492.17 1386.43 492.268C1385.11 492.345 1384.45 492.384 1383.41 491.29C1382.38 490.196 1382.42 489.493 1382.49 488.093C1382.58 486.32 1382.71 483.891 1380.27 481.31C1377.83 478.73 1375.54 478.864 1373.86 478.962C1372.54 479.039 1371.88 479.078 1370.84 477.984C1369.97 477.065 1368.57 477.065 1367.7 477.984C1366.83 478.902 1366.83 480.392 1367.7 481.31C1370.14 483.891 1372.43 483.757 1374.11 483.659C1375.43 483.582 1376.09 483.543 1377.13 484.637C1378.16 485.731 1378.13 486.434 1378.05 487.834C1377.96 489.607 1377.83 492.036 1380.27 494.616C1382.71 497.197 1385 497.063 1386.68 496.965C1388 496.888 1388.67 496.849 1389.7 497.943C1390.73 499.037 1390.7 499.74 1390.62 501.14C1390.53 502.914 1390.4 505.342 1392.84 507.923C1395.28 510.503 1397.58 510.369 1399.25 510.271C1400.57 510.194 1401.24 510.155 1402.27 511.249C1403.3 512.343 1403.27 513.046 1403.19 514.446C1403.1 516.22 1402.98 518.648 1405.41 521.229C1407.85 523.809 1410.15 523.675 1411.82 523.577C1413.14 523.5 1413.81 523.461 1414.84 524.555C1415.88 525.649 1415.84 526.352 1415.77 527.752C1415.67 529.526 1415.55 531.955 1417.99 534.535C1418.85 535.454 1420.26 535.454 1421.13 534.535C1422 533.617 1422 532.127 1421.13 531.209C1420.09 530.115 1420.13 529.411 1420.2 528.012C1420.3 526.238 1420.42 523.809 1417.99 521.229C1415.55 518.648 1413.25 518.782 1411.58 518.88Z" fill="white"/>
<path d="M1375.69 465.866C1371.26 464.659 1366.36 465.882 1362.91 469.541C1359.45 473.2 1358.29 478.385 1359.43 483.067C1357.11 489.493 1357.8 496.304 1361.53 503.861C1364.49 509.85 1369.45 516.426 1377.13 524.555C1384.82 532.693 1391.04 537.95 1396.71 541.097C1401.18 543.579 1405.38 544.77 1409.37 544.739C1411.78 544.721 1414.11 544.28 1416.39 543.356C1420.82 544.564 1425.72 543.341 1429.17 539.682C1432.64 536.016 1433.8 530.85 1432.65 526.14C1433.53 523.69 1433.98 521.182 1433.98 518.597C1433.98 514.41 1432.82 510.019 1430.49 505.341C1427.48 499.287 1422.65 492.902 1414.84 484.637C1407.04 476.38 1401.02 471.283 1395.31 468.111C1388.18 464.145 1381.75 463.409 1375.69 465.866ZM1398.78 536.931C1393.51 534.01 1387.63 529.021 1380.27 521.229C1372.92 513.446 1368.22 507.235 1365.47 501.681C1363.24 497.172 1362.3 493.041 1362.62 489.18C1363 489.614 1410.28 539.647 1410.61 539.982C1406.96 540.317 1403.05 539.304 1398.78 536.931ZM1426.03 536.355C1422.56 540.024 1416.92 540.024 1413.46 536.355L1366.05 486.174C1362.58 482.505 1362.58 476.536 1366.05 472.867C1369.51 469.199 1375.15 469.199 1378.62 472.867L1426.03 523.049C1429.5 526.726 1429.5 532.678 1426.03 536.355ZM1393.25 472.275C1398.47 475.178 1404.33 480.163 1411.7 487.963C1419.08 495.773 1423.8 501.991 1426.56 507.533C1428.8 512.047 1429.77 516.179 1429.45 520.035C1429.13 519.676 1381.85 469.619 1381.46 469.239C1385.1 468.904 1389 469.912 1393.25 472.275Z" fill="white"/>
<path d="M1364.63 0.958801C1343.89 0.958801 1327.11 16.8467 1327.11 36.4821C1327.11 43.5531 1329.28 50.3081 1333.31 56.0682L1318.82 69.6656C1315.89 72.4356 1315.89 76.943 1318.82 79.7132C1321.75 82.4908 1326.51 82.4755 1329.42 79.7214L1343.92 66.1186C1350.01 69.9482 1357.15 72.0052 1364.63 72.0052C1385.37 72.0052 1402.15 56.1173 1402.15 36.4819C1402.15 16.8492 1385.37 0.958801 1364.63 0.958801ZM1325.9 76.3639C1324.92 77.2873 1323.33 77.2873 1322.36 76.3639C1321.38 75.4404 1321.38 73.938 1322.35 73.0229L1336.38 59.8601C1336.93 60.4548 1337.5 61.0363 1338.1 61.6007C1338.69 62.159 1339.29 62.6944 1339.92 63.2103L1325.9 76.3639ZM1364.63 67.269C1346.7 67.269 1332.11 53.458 1332.11 36.4821C1332.11 19.5062 1346.7 5.69524 1364.63 5.69524C1382.56 5.69524 1397.15 19.5062 1397.15 36.4821C1397.15 53.458 1382.56 67.269 1364.63 67.269Z" fill="white"/>
<path d="M1392.14 36.482C1392.14 34.1171 1391.22 31.887 1389.56 30.1585C1390.08 27.8748 1389.71 25.5048 1388.46 23.457C1387.21 21.4086 1385.23 19.916 1382.88 19.206C1382.13 16.9791 1380.55 15.1041 1378.39 13.9216C1376.22 12.7393 1373.72 12.3844 1371.31 12.883C1369.48 11.3091 1367.13 10.4314 1364.63 10.4314C1362.13 10.4314 1359.78 11.3092 1357.95 12.8829C1355.54 12.3843 1353.03 12.7393 1350.87 13.9216C1348.71 15.1042 1347.13 16.9791 1346.38 19.206C1344.03 19.9161 1342.05 21.4086 1340.8 23.4568C1339.55 25.5047 1339.18 27.8746 1339.7 30.1584C1338.04 31.8869 1337.11 34.1171 1337.11 36.4818C1337.11 38.8467 1338.04 41.0768 1339.7 42.8053C1339.18 45.0889 1339.55 47.459 1340.8 49.5071C1342.05 51.5553 1344.03 53.0477 1346.38 53.7577C1347.13 55.9846 1348.71 57.8595 1350.87 59.0423C1353.03 60.2245 1355.54 60.5796 1357.95 60.0807C1359.78 61.6546 1362.13 62.5323 1364.63 62.5323C1367.13 62.5323 1369.48 61.6546 1371.31 60.0808C1373.72 60.5794 1376.22 60.2245 1378.39 59.0423C1380.55 57.8598 1382.13 55.9848 1382.88 53.7579C1385.23 53.0479 1387.21 51.5554 1388.46 49.5072C1389.71 47.4592 1390.08 45.0892 1389.56 42.8055C1391.22 41.0768 1392.14 38.8469 1392.14 36.482ZM1385.18 40.2094C1384.29 40.861 1383.97 41.9951 1384.39 42.9806C1384.99 44.3641 1384.89 45.8796 1384.13 47.1391C1383.36 48.3984 1382.02 49.2358 1380.45 49.4366C1379.34 49.5797 1378.46 50.4097 1378.31 51.4651C1378.1 52.9467 1377.22 54.2135 1375.88 54.9405C1374.56 55.6674 1372.95 55.7593 1371.49 55.1925C1370.45 54.789 1369.25 55.0929 1368.57 55.935C1367.6 57.1177 1366.16 57.7961 1364.63 57.7961C1363.09 57.7961 1361.66 57.1179 1360.69 55.9352C1360 55.0883 1358.8 54.7912 1357.76 55.1927C1356.3 55.7593 1354.7 55.6676 1353.37 54.9409C1352.04 54.2137 1351.16 52.947 1350.95 51.4656C1350.79 50.4101 1349.92 49.58 1348.8 49.437C1347.24 49.2361 1345.9 48.3986 1345.13 47.1395C1344.36 45.88 1344.27 44.3644 1344.87 42.9807C1345.29 41.9952 1344.97 40.8615 1344.08 40.2099C1342.83 39.2951 1342.12 37.9366 1342.12 36.4823C1342.12 35.0281 1342.83 33.6695 1344.08 32.7546C1344.97 32.103 1345.29 30.9693 1344.87 29.9838C1344.27 28.6003 1344.36 27.0844 1345.13 25.8253C1345.9 24.5659 1347.24 23.7285 1348.8 23.5275C1349.92 23.3845 1350.79 22.5543 1350.95 21.4989C1351.16 20.0177 1352.04 18.751 1353.37 18.0238C1354.7 17.2969 1356.3 17.2052 1357.76 17.7718C1358.81 18.1757 1360 17.8716 1360.69 17.0291C1361.66 15.8466 1363.09 15.1682 1364.63 15.1682C1366.16 15.1682 1367.6 15.8464 1368.57 17.0293C1369.25 17.8714 1370.45 18.1753 1371.49 17.7718C1372.95 17.205 1374.56 17.2969 1375.88 18.0236C1377.22 18.7508 1378.1 20.0175 1378.31 21.4991C1378.46 22.5543 1379.34 23.3843 1380.45 23.5274C1382.02 23.7283 1383.36 24.5658 1384.13 25.8252C1384.89 27.0844 1384.99 28.6001 1384.39 29.9833C1383.97 30.9689 1384.29 32.1027 1385.18 32.7544C1386.43 33.6692 1387.14 35.0279 1387.14 36.482C1387.14 37.9361 1386.43 39.2947 1385.18 40.2094Z" fill="white"/>
<path d="M1376.4 30.071C1375.43 29.1461 1373.84 29.1461 1372.87 30.071C1371.89 30.9959 1371.89 32.4953 1372.87 33.4201L1377.87 38.1566C1378.85 39.0814 1380.43 39.0816 1381.41 38.1566C1382.38 37.2317 1382.38 35.7323 1381.41 34.8074L1376.4 30.071Z" fill="white"/>
<path d="M1361.39 36.1949C1360.42 37.1198 1360.42 38.6192 1361.39 39.544C1362.37 40.4675 1362.37 41.9699 1361.39 42.8932C1360.42 43.8166 1358.83 43.8166 1357.86 42.8932C1356.88 41.9685 1355.3 41.9685 1354.32 42.8932C1353.34 43.818 1353.34 45.3174 1354.32 46.2423C1357.25 49.012 1362.01 49.0123 1364.93 46.2423C1367.86 43.4723 1367.86 38.9649 1364.93 36.1947C1363.96 35.2699 1362.37 35.2699 1361.39 36.1949Z" fill="white"/>
<path d="M1362.86 20.5982L1357.86 25.3346C1356.88 26.2595 1356.88 27.7589 1357.86 28.6837C1358.83 29.6084 1360.42 29.6086 1361.39 28.6837L1366.4 23.9473C1367.37 23.0224 1367.37 21.523 1366.4 20.5982C1365.42 19.6733 1363.84 19.6733 1362.86 20.5982Z" fill="white"/>
<path d="M1349.62 38.8504C1351 38.8504 1352.12 37.7901 1352.12 36.4822C1352.12 35.1743 1351 34.114 1349.62 34.114C1348.24 34.114 1347.12 35.1743 1347.12 36.4822C1347.12 37.7901 1348.24 38.8504 1349.62 38.8504Z" fill="white"/>
<path d="M1374.64 48.3232C1376.02 48.3232 1377.14 47.2629 1377.14 45.955C1377.14 44.647 1376.02 43.5867 1374.64 43.5867C1373.25 43.5867 1372.13 44.647 1372.13 45.955C1372.13 47.2629 1373.25 48.3232 1374.64 48.3232Z" fill="white"/>
<path d="M82.507 554.511C107.16 544.803 119.676 518.057 110.484 494.714C107.174 486.308 101.433 479.293 93.937 474.335L104.802 451.385C106.983 446.722 104.873 441.364 100.098 439.44C95.3096 437.511 89.6568 439.758 87.4878 444.394L76.619 467.353C67.5885 465.651 58.1351 466.549 49.2473 470.049C24.5942 479.757 12.0779 506.502 21.2701 529.846C30.4607 553.186 57.8507 564.22 82.507 554.511ZM93.2544 446.734C93.9815 445.18 95.8681 444.437 97.46 445.078C99.0519 445.719 99.7552 447.505 99.0345 449.046L88.5175 471.262C87.5845 470.813 86.6326 470.389 85.6597 469.997C84.6973 469.61 83.7248 469.257 82.745 468.935L93.2544 446.734ZM51.4642 475.679C72.7811 467.285 96.5894 476.875 104.537 497.056C112.484 517.238 101.607 540.486 80.2896 548.88C58.9727 557.275 35.1645 547.685 27.2173 527.503C19.2701 507.322 30.1473 484.074 51.4642 475.679Z" fill="white"/>
<path d="M33.1654 525.161C34.2725 527.973 36.4186 530.19 39.2038 531.467C39.6466 534.428 41.2018 537.07 43.6452 538.92C46.0887 540.771 49.1421 541.618 52.2714 541.361C54.2057 543.657 56.9576 545.148 60.0829 545.541C63.2077 545.934 66.3495 545.184 68.9844 543.462C71.8917 544.479 75.103 544.419 78.0728 543.25C81.0425 542.08 83.4319 539.934 84.8657 537.209C87.967 536.672 90.777 535.078 92.7951 532.66C94.813 530.241 95.8092 527.274 95.6582 524.276C98.1224 522.33 99.7784 519.629 100.305 516.609C100.83 513.59 100.166 510.597 98.4714 508.128C99.6382 505.295 99.6965 502.21 98.5894 499.399C97.4823 496.587 95.336 494.37 92.5508 493.093C92.1077 490.132 90.5526 487.49 88.1091 485.64C85.6653 483.789 82.612 482.942 79.483 483.2C77.549 480.903 74.7974 479.412 71.6717 479.019C68.5467 478.626 65.4044 479.376 62.7704 481.098C59.8629 480.082 56.6519 480.141 53.6821 481.31C50.7124 482.48 48.3229 484.626 46.889 487.352C43.7872 487.889 40.9776 489.482 38.9597 491.9C36.9417 494.319 35.9454 497.286 36.0962 500.284C33.6318 502.23 31.976 504.931 31.4501 507.951C30.9242 510.97 31.5878 513.963 33.2832 516.432C32.1164 519.265 32.0583 522.35 33.1654 525.161ZM39.7051 517.468C40.4579 516.277 40.3084 514.778 39.34 513.806C37.9805 512.442 37.3864 510.595 37.7099 508.738C38.0332 506.881 39.2316 505.259 40.998 504.288C42.2563 503.596 42.91 502.199 42.5959 500.873C42.1545 499.013 42.6134 497.092 43.8543 495.605C45.0947 494.119 46.9547 493.26 48.9584 493.249C50.3848 493.242 51.6658 492.32 52.0899 490.997C52.6851 489.138 54.0737 487.66 55.8996 486.941C57.7256 486.222 59.7491 486.356 61.4516 487.31C62.6706 487.993 64.2354 487.785 65.2786 486.823C66.751 485.465 68.6974 484.824 70.6181 485.066C72.54 485.307 74.1846 486.399 75.1302 488.061C75.8042 489.245 77.235 489.822 78.6273 489.47C80.5817 488.976 82.5646 489.345 84.067 490.482C85.5694 491.62 86.3945 493.377 86.3306 495.302C86.285 496.673 87.1974 497.871 88.5601 498.229C90.4735 498.731 91.9612 500.011 92.642 501.74C93.3228 503.469 93.1071 505.419 92.0503 507.092C91.2976 508.283 91.4469 509.781 92.415 510.753C93.7744 512.118 94.3685 513.965 94.0454 515.821C93.722 517.678 92.5232 519.3 90.7567 520.272C89.4983 520.964 88.8447 522.361 89.159 523.686C89.6003 525.547 89.1417 527.467 87.9009 528.954C86.6603 530.441 84.7996 531.299 82.7968 531.31C81.3698 531.317 80.0887 532.239 79.6651 533.563C79.07 535.421 77.6814 536.899 75.8555 537.618C74.0296 538.337 72.0059 538.203 70.3033 537.249C69.0908 536.57 67.5249 536.77 66.4765 537.737C65.0035 539.095 63.0579 539.735 61.1368 539.493C59.2149 539.252 57.5701 538.16 56.6242 536.498C55.9503 535.314 54.5196 534.738 53.1273 535.09C51.1726 535.584 49.1901 535.214 47.6876 534.077C46.1853 532.939 45.3602 531.183 45.4244 529.258C45.4701 527.886 44.5579 526.689 43.1949 526.331C41.2815 525.828 39.7937 524.548 39.113 522.819C38.4323 521.091 38.648 519.14 39.7051 517.468Z" fill="white"/>
<path d="M54.8808 525.414C56.4749 526.056 58.3579 525.314 59.0863 523.757C59.8147 522.201 59.1128 520.418 57.5185 519.776L49.3535 516.487C47.7593 515.845 45.8762 516.586 45.1479 518.143C44.4195 519.7 45.1214 521.483 46.7158 522.125L54.8808 525.414Z" fill="white"/>
<path d="M69.8563 511.107C70.5847 509.55 69.8828 507.768 68.2884 507.126C66.6966 506.485 65.9932 504.698 66.7206 503.144C67.4478 501.59 69.3344 500.847 70.9263 501.488C72.5206 502.13 74.4034 501.389 75.1319 499.832C75.8601 498.275 75.1582 496.493 73.564 495.85C68.7892 493.927 63.1289 496.156 60.9471 500.819C58.7653 505.482 60.8754 510.84 65.6508 512.764C67.2452 513.406 69.1282 512.664 69.8563 511.107Z" fill="white"/>
<path d="M75.4161 530.335L79.1464 522.362C79.8746 520.805 79.1726 519.023 77.5785 518.381C75.9844 517.739 74.1013 518.48 73.3729 520.037L69.6426 528.01C68.9142 529.566 69.6161 531.349 71.2105 531.991C72.8046 532.633 74.6877 531.892 75.4161 530.335Z" fill="white"/>
<path d="M82.6116 502.438C80.9692 503.085 80.1341 504.869 80.7464 506.424C81.3587 507.979 83.1865 508.716 84.8289 508.069C86.4713 507.422 87.3064 505.637 86.6941 504.082C86.0818 502.527 84.254 501.791 82.6116 502.438Z" fill="white"/>
<path d="M48.4384 502.887C46.796 503.534 45.961 505.318 46.5733 506.873C47.1856 508.428 49.0134 509.164 50.6558 508.518C52.2982 507.871 53.1332 506.086 52.5209 504.531C51.9086 502.976 50.0808 502.24 48.4384 502.887Z" fill="white"/>
<g opacity="0.05">
<path d="M115.185 679.821C96.0491 679.821 80.5605 694.482 80.5605 712.601C80.5605 719.126 82.5618 725.359 86.2874 730.674L72.9132 743.222C70.2134 745.778 70.2134 749.937 72.9132 752.493C75.6207 755.056 80.0139 755.042 82.6983 752.501L96.0776 739.949C101.695 743.482 108.286 745.381 115.184 745.381C134.32 745.381 149.809 730.72 149.809 712.601C149.809 694.484 134.323 679.821 115.185 679.821ZM79.4423 749.403C78.5423 750.255 77.078 750.255 76.1779 749.403C75.2778 748.55 75.2778 747.164 76.1697 746.32L89.1161 734.173C89.6242 734.722 90.1518 735.259 90.7019 735.779C91.246 736.295 91.8063 736.789 92.3794 737.265L79.4423 749.403ZM115.185 741.01C98.6385 741.01 85.1771 728.266 85.1771 712.601C85.1771 696.936 98.6385 684.191 115.185 684.191C131.731 684.191 145.192 696.936 145.192 712.601C145.192 728.266 131.731 741.01 115.185 741.01Z" fill="white"/>
<path d="M140.576 712.601C140.576 710.418 139.72 708.36 138.187 706.765C138.673 704.658 138.327 702.471 137.174 700.581C136.022 698.691 134.194 697.314 132.023 696.659C131.331 694.604 129.877 692.874 127.88 691.782C125.884 690.691 123.575 690.364 121.348 690.824C119.664 689.372 117.49 688.562 115.185 688.562C112.88 688.562 110.706 689.372 109.021 690.824C106.795 690.364 104.485 690.691 102.489 691.782C100.493 692.874 99.0386 694.604 98.3465 696.659C96.1758 697.314 94.3481 698.691 93.1954 700.581C92.0431 702.471 91.6973 704.658 92.1831 706.765C90.6493 708.36 89.7937 710.418 89.7937 712.6C89.7937 714.783 90.6493 716.84 92.1831 718.435C91.6973 720.543 92.0431 722.73 93.1955 724.62C94.3481 726.51 96.1758 727.887 98.3465 728.542C99.0386 730.597 100.493 732.327 102.489 733.419C104.485 734.509 106.795 734.837 109.021 734.377C110.706 735.829 112.88 736.639 115.185 736.639C117.49 736.639 119.664 735.829 121.348 734.377C123.575 734.837 125.885 734.509 127.881 733.419C129.877 732.327 131.331 730.597 132.023 728.542C134.194 727.887 136.022 726.51 137.174 724.62C138.327 722.73 138.673 720.543 138.187 718.436C139.72 716.84 140.576 714.783 140.576 712.601ZM134.145 716.04C133.324 716.641 133.028 717.688 133.422 718.597C133.974 719.874 133.885 721.272 133.176 722.435C132.467 723.597 131.233 724.369 129.789 724.555C128.76 724.687 127.951 725.453 127.811 726.427C127.616 727.794 126.799 728.963 125.572 729.634C124.345 730.304 122.868 730.389 121.518 729.866C120.558 729.494 119.453 729.774 118.818 730.551C117.926 731.643 116.602 732.269 115.185 732.269C113.767 732.269 112.443 731.643 111.551 730.551C110.913 729.77 109.806 729.496 108.851 729.866C107.502 730.389 106.024 730.304 104.798 729.634C103.57 728.963 102.754 727.794 102.558 726.427C102.418 725.453 101.61 724.687 100.581 724.555C99.1367 724.37 97.902 723.597 97.1933 722.435C96.4848 721.273 96.3951 719.874 96.9476 718.597C97.341 717.688 97.0448 716.642 96.2238 716.041C95.0711 715.196 94.41 713.943 94.41 712.601C94.41 711.259 95.0711 710.005 96.2238 709.161C97.0448 708.56 97.3409 707.513 96.9476 706.604C96.3951 705.327 96.4848 703.929 97.1932 702.767C97.9018 701.605 99.1366 700.832 100.581 700.646C101.61 700.514 102.418 699.748 102.558 698.774C102.754 697.408 103.57 696.239 104.797 695.568C106.024 694.897 107.502 694.812 108.851 695.335C109.812 695.708 110.917 695.427 111.551 694.65C112.443 693.559 113.767 692.933 115.185 692.933C116.602 692.933 117.926 693.559 118.818 694.65C119.453 695.427 120.558 695.708 121.519 695.335C122.868 694.812 124.345 694.897 125.572 695.568C126.799 696.239 127.616 697.407 127.812 698.775C127.951 699.748 128.76 700.514 129.789 700.646C131.233 700.832 132.468 701.604 133.176 702.767C133.885 703.929 133.974 705.327 133.422 706.604C133.028 707.513 133.324 708.559 134.146 709.161C135.298 710.005 135.959 711.259 135.959 712.601C135.959 713.942 135.298 715.196 134.145 716.04Z" fill="white"/>
<path d="M126.05 706.685C125.148 705.831 123.687 705.831 122.785 706.685C121.884 707.538 121.884 708.922 122.785 709.775L127.402 714.146C128.303 714.999 129.765 715 130.666 714.146C131.568 713.293 131.568 711.909 130.666 711.055L126.05 706.685Z" fill="white"/>
<path d="M112.201 712.336C111.299 713.189 111.299 714.573 112.201 715.426C113.101 716.278 113.101 717.665 112.201 718.517C111.301 719.369 109.836 719.369 108.936 718.517C108.035 717.663 106.573 717.663 105.672 718.517C104.77 719.37 104.77 720.754 105.672 721.607C108.371 724.163 112.765 724.163 115.465 721.607C118.165 719.051 118.165 714.892 115.465 712.336C114.564 711.482 113.102 711.482 112.201 712.336Z" fill="white"/>
<path d="M113.553 697.943L108.936 702.314C108.035 703.167 108.035 704.551 108.936 705.405C109.837 706.258 111.299 706.258 112.2 705.405L116.817 701.034C117.718 700.18 117.718 698.797 116.817 697.943C115.916 697.09 114.454 697.09 113.553 697.943Z" fill="white"/>
<path d="M101.335 714.786C102.61 714.786 103.643 713.808 103.643 712.601C103.643 711.394 102.61 710.415 101.335 710.415C100.06 710.415 99.0265 711.394 99.0265 712.601C99.0265 713.808 100.06 714.786 101.335 714.786Z" fill="white"/>
<path d="M124.418 723.527C125.693 723.527 126.726 722.549 126.726 721.342C126.726 720.135 125.693 719.157 124.418 719.157C123.143 719.157 122.11 720.135 122.11 721.342C122.11 722.549 123.143 723.527 124.418 723.527Z" fill="white"/>
</g>
<defs>
<clipPath id="clip0_1_47">
<rect width="98.1003" height="98.1003" fill="white" transform="translate(1263.8 686.757) rotate(-43.5936)"/>
</clipPath>
</defs>
</svg>
