<svg width="49" height="49" viewBox="0 0 49 49" fill="none" xmlns="http://www.w3.org/2000/svg">
<g clip-path="url(#clip0_1_43)">
<path d="M37.8294 15.8944C37.5106 15.5845 37.0631 15.4437 36.6253 15.5157C36.1867 15.5874 35.8079 15.8628 35.6044 16.258C34.9046 17.6175 34.0157 18.8668 32.9699 19.9713C33.0742 19.1734 33.1266 18.3709 33.1266 17.5661C33.1266 16.022 32.9197 14.4331 32.5113 12.8428C31.1687 7.61931 27.6482 3.20189 22.8526 0.723271C22.4351 0.507548 21.9376 0.515122 21.5268 0.743469C21.1161 0.971909 20.847 1.39073 20.8102 1.85921C20.4363 6.60605 17.9913 10.9246 14.0983 13.7104C14.0467 13.7475 13.9956 13.7851 13.9445 13.8225C13.8385 13.9001 13.7386 13.9734 13.6453 14.0349C13.6307 14.0446 13.6162 14.0545 13.602 14.0647C11.1536 15.8177 9.13336 18.1545 7.75945 20.8231C6.36337 23.5376 5.65552 26.4504 5.65552 29.4806C5.65552 31.0242 5.86245 32.6132 6.27061 34.2038C8.42457 42.5874 15.9692 48.4427 24.6177 48.4427C35.073 48.4427 43.5789 39.9363 43.5789 29.4806C43.5789 24.3245 41.537 19.4995 37.8294 15.8944Z" fill="white"/>
<circle cx="23.8919" cy="29.5825" r="5.80317" fill="#FF7327"/>
</g>
<defs>
<clipPath id="clip0_1_43">
<rect width="47.8761" height="47.8761" fill="white" transform="translate(0.679138 0.56665)"/>
</clipPath>
</defs>
</svg>
