<svg width="94" height="43" viewBox="0 0 94 43" fill="none" xmlns="http://www.w3.org/2000/svg">
<path d="M9.38843 33.2439C10.8496 33.2439 12.1422 32.9769 13.2662 32.4431C14.3901 31.8811 15.2472 31.0381 15.8373 29.9141V32.7381H21.7382V9.72457H15.4158V23.1702C15.4158 24.4909 15.0224 25.5587 14.2356 26.3736C13.4488 27.1603 12.4372 27.5537 11.2008 27.5537C9.96447 27.5537 8.95288 27.1603 8.16609 26.3736C7.37931 25.5587 6.98591 24.4909 6.98591 23.1702V9.72457H0.663513V23.676C0.663513 26.5421 1.40815 28.8604 2.89743 30.6306C4.4148 32.3728 6.57847 33.2439 9.38843 33.2439Z" fill="white"/>
<path d="M26.3591 7.65925H32.6815V1.33685H26.3591V7.65925ZM26.3591 32.7381H32.6815V9.72457H26.3591V32.7381Z" fill="white"/>
<path d="M40.0899 32.7381H46.4123V15.204H51.3438V9.72457H46.4123V9.38737C46.4123 7.3361 47.6066 6.31047 49.995 6.31047C50.3884 6.31047 50.8521 6.35262 51.386 6.43692V1.0418C50.7397 0.901304 49.995 0.831055 49.152 0.831055C46.2859 0.831055 44.052 1.57569 42.4503 3.06497C40.8767 4.55425 40.0899 6.66171 40.0899 9.38737V9.72457H36.2122V15.204H40.0899V32.7381Z" fill="white"/>
<path d="M54.5959 32.7381H60.9183V20.3462C60.9183 18.6321 61.396 17.3114 62.3514 16.3842C63.3068 15.4288 64.5572 14.9511 66.1027 14.9511H68.0837V9.47167H66.7349C65.3299 9.47167 64.0795 9.73861 62.9836 10.2725C61.9158 10.7783 61.0869 11.7477 60.4968 13.1808V9.72457H54.5959V32.7381Z" fill="white"/>
<path d="M74.4374 42.0953C78.6523 42.0953 81.7011 39.6927 83.5838 34.8877L93.4467 9.72457H86.6607L81.2234 24.519L75.7861 9.72457H69.0001L78.0622 32.7381L77.6407 33.7075C77.3035 34.4662 76.868 35.1406 76.3341 35.7307C75.8002 36.3208 74.9151 36.6158 73.6787 36.6158C72.6671 36.6158 71.7117 36.4753 70.8125 36.1943V41.3787C71.2902 41.6316 71.8382 41.8143 72.4563 41.9267C73.1026 42.0391 73.763 42.0953 74.4374 42.0953Z" fill="white"/>
</svg>
